<svg fill="#000000" xmlns="http://www.w3.org/2000/svg"  viewBox="0 0 26 26" width="26px" height="26px"><path d="M1.918,12.962c0,4.401,2.557,8.205,6.267,10.008L2.88,8.437C2.264,9.819,1.918,11.35,1.918,12.962z M20.544,12.4c0-1.374-0.493-2.326-0.917-3.066c-0.563-0.917-1.092-1.691-1.092-2.608c0-1.021,0.775-1.973,1.867-1.973 c0.049,0,0.096,0.006,0.145,0.008c-1.979-1.813-4.615-2.919-7.509-2.919c-3.885,0-7.303,1.993-9.291,5.013 c0.261,0.008,0.507,0.013,0.716,0.013c1.163,0,2.963-0.142,2.963-0.142c0.599-0.035,0.67,0.846,0.071,0.917 c0,0-0.603,0.07-1.272,0.105l4.049,12.045l2.434-7.298l-1.732-4.747c-0.599-0.035-1.167-0.105-1.167-0.105 C9.209,7.607,9.28,6.69,9.879,6.726c0,0,1.836,0.142,2.928,0.142c1.163,0,2.964-0.142,2.964-0.142c0.6-0.035,0.67,0.846,0.071,0.917 c0,0-0.604,0.07-1.272,0.105l4.018,11.953l1.11-3.706C20.262,14.55,20.544,13.353,20.544,12.4z M13.233,13.935l-3.337,9.694 c0.997,0.293,2.05,0.453,3.142,0.453c1.294,0,2.537-0.224,3.693-0.63c-0.029-0.048-0.057-0.099-0.08-0.153L13.233,13.935z M22.795,7.627c0.049,0.354,0.075,0.734,0.075,1.144c0,1.128-0.212,2.396-0.846,3.982l-3.396,9.82 c3.306-1.928,5.529-5.509,5.529-9.611C24.157,11.028,23.663,9.21,22.795,7.627z"/><path d="M0.075,12.962c0,7.147,5.815,12.963,12.962,12.963C20.186,25.925,26,20.109,26,12.962S20.186,0,13.038,0 C5.89,0,0.075,5.814,0.075,12.962z M0.669,12.962c0-6.819,5.548-12.368,12.368-12.368s12.369,5.549,12.369,12.368 S19.857,25.33,13.038,25.33S0.669,19.781,0.669,12.962z"/></svg>